<svg width="40" height="40" xmlns="http://www.w3.org/2000/svg">
 <metadata>image/svg+xmlOpenclipart</metadata>

 <g>
  <title>background</title>
  <rect x="-1" y="-1" width="42" height="42" id="canvas_background" fill="none"/>
 </g>
 <g>
  <title>Layer 1</title>
  <g stroke="null" id="layer1">
   <g stroke="null" id="g3125" transform="matrix(0.1467983178654313,0,0,0.1467983178654313,50.90340710764873,-126.40324315441211) ">
    <path stroke="#000000" id="path4851" d="m-201.589941,1004.092235l-12.179,38.936l3.7891,1.6798l12.178,-38.936l-3.7881,-1.6798z" fill="#000000" stroke-width="1.022px"/>
    <g stroke="null" id="g4853">
     <path stroke="#000000" id="path4855" d="m-218.109931,904.422265l0,4.7982l29.294,0l0,-5.3033l-29.294,0.5051z" fill="#000000" stroke-width="1px"/>
     <path stroke="#000000" id="path4857" d="m-227.959931,983.632265l48.992,0l0,4.7982l-48.992,0l0,-4.7982z" fill="#000000" stroke-width="1px"/>
     <path stroke="#000000" id="path4859" d="m-215.939931,948.692265c-1.7857,-1.0714 0.71429,-61.792 0.71429,-61.792c1.25,-2.1429 22.86,-2.1429 23.753,0c0,0 2.3214,60.517 0.89286,61.767c0.71429,3.0357 -27.146,2.3468 -25.36,0.0254l-0.00015,-0.0004z" fill="#aa0000" stroke-width="1.1756px"/>
     <rect stroke="#000000" id="rect4861" rx="7.6429" ry="6.985" height="50" width="21.786" y="961.032261" x="-249.55993" fill="#666666" stroke-linecap="round" stroke-linejoin="round"/>
     <rect stroke="#000000" id="rect4863" rx="7.6429" ry="6.985" height="50" width="21.786" y="961.032261" x="-178.91993" fill="#666666" stroke-linecap="round" stroke-linejoin="round"/>
     <rect stroke="#000000" id="rect4865" rx="5.2232" ry="4.5746" height="32.746" width="14.888" y="890.192261" x="-188.82993" fill="#666666" stroke-linecap="round" stroke-linejoin="round"/>
     <rect stroke="#000000" id="rect4867" rx="5.2232" ry="4.5746" height="32.746" width="14.888" y="890.192261" x="-232.89993" fill="#666666" stroke-linecap="round" stroke-linejoin="round"/>
     <path stroke="#4d4d4d" id="path4869" d="m-249.059931,1007.102265l10.376,-5.9907l10.27,5.9296" fill="none" stroke-width="1px"/>
     <path stroke="#4d4d4d" id="path4871" d="m-249.059931,999.422265l10.376,-5.9907l10.27,5.9296" fill="none" stroke-width="1px"/>
     <path stroke="#4d4d4d" id="path4873" d="m-249.059931,991.742265l10.587,-6.1126l10.355,5.9786" fill="none" stroke-width="1px"/>
     <path stroke="#4d4d4d" id="path4875" d="m-249.419931,982.992265l10.714,-4.1071l10.714,4.4643" fill="none" stroke-width="1px"/>
     <path stroke="#4d4d4d" id="path4877" d="m-250.129931,976.922265l11.429,-3.75l10.893,4.2857" fill="none" stroke-width="1px"/>
     <path stroke="#4d4d4d" id="path4879" d="m-249.779931,970.672265l11.25,-3.3928l10.536,3.3928" fill="none" stroke-width="1px"/>
     <path stroke="#4d4d4d" id="path4881" d="m-249.059931,965.492265l10.357,-2.1428l10.714,2.5" fill="none" stroke-width="1px"/>
     <rect stroke="#000000" id="rect4883" rx="7.6429" ry="6.985" height="50" width="21.786" y="961.032261" x="-249.55993" fill="none" stroke-linecap="round" stroke-linejoin="round"/>
     <path stroke="#4d4d4d" id="path4885" d="m-178.349931,1006.922265l10.376,-5.9907l10.27,5.9296" fill="none" stroke-width="1px"/>
     <path stroke="#4d4d4d" id="path4887" d="m-178.349931,999.242265l10.376,-5.9907l10.27,5.9296" fill="none" stroke-width="1px"/>
     <path stroke="#4d4d4d" id="path4889" d="m-178.349931,991.562265l10.587,-6.1126l10.355,5.9786" fill="none" stroke-width="1px"/>
     <path stroke="#4d4d4d" id="path4891" d="m-178.709931,982.812265l10.714,-4.1071l10.714,4.4643" fill="none" stroke-width="1px"/>
     <path stroke="#4d4d4d" id="path4893" d="m-179.419931,976.742265l11.429,-3.75l10.893,4.2857" fill="none" stroke-width="1px"/>
     <path stroke="#4d4d4d" id="path4895" d="m-179.059931,970.492265l11.25,-3.3928l10.536,3.3928" fill="none" stroke-width="1px"/>
     <path stroke="#4d4d4d" id="path4897" d="m-178.349931,965.312265l10.357,-2.1428l10.714,2.5" fill="none" stroke-width="1px"/>
     <rect stroke="#000000" id="rect4899" rx="7.6429" ry="6.985" height="50" width="21.786" y="960.852261" x="-178.84993" fill="none" stroke-linecap="round" stroke-linejoin="round"/>
     <g stroke="null" id="g4901" transform="matrix(0.6635,0,0,0.65336,141.55,114.87) ">
      <path stroke="#4d4d4d" id="path4903" d="m-563.405055,1232.663158l10.376,-5.9907l10.27,5.9296" fill="none" stroke-width="1px"/>
      <path stroke="#4d4d4d" id="path4905" d="m-563.405055,1224.983158l10.376,-5.9907l10.27,5.9296" fill="none" stroke-width="1px"/>
      <path stroke="#4d4d4d" id="path4907" d="m-563.405055,1217.303158l10.587,-6.1126l10.355,5.9786" fill="none" stroke-width="1px"/>
      <path stroke="#4d4d4d" id="path4909" d="m-563.765055,1208.553158l10.714,-4.1071l10.714,4.4643" fill="none" stroke-width="1px"/>
      <path stroke="#4d4d4d" id="path4911" d="m-564.475055,1202.483158l11.429,-3.75l10.893,4.2857" fill="none" stroke-width="1px"/>
      <path stroke="#4d4d4d" id="path4913" d="m-564.125055,1196.233158l11.25,-3.3928l10.536,3.3928" fill="none" stroke-width="1px"/>
      <path stroke="#4d4d4d" id="path4915" d="m-563.405055,1191.053158l10.357,-2.1428l10.714,2.5" fill="none" stroke-width="1px"/>
      <rect stroke="#000000" id="rect4917" rx="7.6429" ry="6.985" height="50" width="21.786" y="1186.59316" x="-563.905053" fill="none" stroke-linecap="round" stroke-linejoin="round"/>
     </g>
     <g stroke="null" id="g4919" transform="matrix(0.6635,0,0,0.65336,185.48,115.05) ">
      <path stroke="#4d4d4d" id="path4921" d="m-563.405055,1232.663158l10.376,-5.9907l10.27,5.9296" fill="none" stroke-width="1px"/>
      <path stroke="#4d4d4d" id="path4923" d="m-563.405055,1224.983158l10.376,-5.9907l10.27,5.9296" fill="none" stroke-width="1px"/>
      <path stroke="#4d4d4d" id="path4925" d="m-563.405055,1217.303158l10.587,-6.1126l10.355,5.9786" fill="none" stroke-width="1px"/>
      <path stroke="#4d4d4d" id="path4927" d="m-563.765055,1208.553158l10.714,-4.1071l10.714,4.4643" fill="none" stroke-width="1px"/>
      <path stroke="#4d4d4d" id="path4929" d="m-564.475055,1202.483158l11.429,-3.75l10.893,4.2857" fill="none" stroke-width="1px"/>
      <path stroke="#4d4d4d" id="path4931" d="m-564.125055,1196.233158l11.25,-3.3928l10.536,3.3928" fill="none" stroke-width="1px"/>
      <path stroke="#4d4d4d" id="path4933" d="m-563.405055,1191.053158l10.357,-2.1428l10.714,2.5" fill="none" stroke-width="1px"/>
      <rect stroke="#000000" id="rect4935" rx="7.6429" ry="6.985" height="50" width="21.786" y="1186.59316" x="-563.905053" fill="none" stroke-linecap="round" stroke-linejoin="round"/>
     </g>
     <path stroke="#000000" id="path4937" d="m-224.779931,962.282265l0,48.571c1.6071,1.7857 41.25,1.25 42.857,0l0,-49.286s-2.793,-13.176 -5.8288,-13.712l-31.314,0c-3.0357,0.17857 -5.7143,14.426 -5.7143,14.426l0.0001,0.001z" fill="#aa0000" stroke-width="1px"/>
     <path stroke="#000000" id="path4939" d="m-199.051931,956.987265c0,2.371 -1.9221,4.2932 -4.2932,4.2932c-2.371,0 -4.2931,-1.9221 -4.2931,-4.2932c0,-2.371 1.9221,-4.2932 4.2931,-4.2932s4.2932,1.9221 4.2932,4.2932z" fill="#ffffff" stroke-linecap="round" stroke-linejoin="round"/>
    </g>
    <g stroke="null" id="g5803">
     <g stroke="null" id="g5688" transform="matrix(0.99978,0.021105,-0.021105,0.99978,3.2035,3.3491) ">
      <g stroke="null" id="g5684">
       <path stroke="#000000" id="path5680" d="m-316.326348,1098.620207c0.39555,3.6275 0.15987,6.62885 -0.52643,6.70368s-1.56329,-2.80518 -1.95885,-6.43268c-0.39556,-3.62761 -0.15987,-6.62895 0.52642,-6.70379s1.5633,2.80518 1.95886,6.43279z" fill="#1a1a1a" stroke-linecap="round" stroke-linejoin="round"/>
       <path stroke="#000000" id="path5682" d="m-314.509088,1098.620207c-0.39555,3.6275 -0.15987,6.62885 0.52643,6.70368s1.56329,-2.80518 1.95885,-6.43268c0.39556,-3.62761 0.15987,-6.62895 -0.52642,-6.70379s-1.5633,2.80518 -1.95886,6.43279z" fill="#1a1a1a" stroke-linecap="round" stroke-linejoin="round"/>
      </g>
      <rect stroke="#000000" id="rect5678" height="47.903" width="3.9743" y="1049.694717" x="-317.403118" fill="#800000" stroke-width="0.95429" stroke-linecap="round" stroke-linejoin="round"/>
      <rect stroke="#000000" id="rect5676" rx="2.1429" ry="2.8571" height="26.429" width="14.643" y="1061.794717" x="-322.738118" fill="#666666" stroke-linecap="round" stroke-linejoin="round"/>
     </g>
     <g stroke="null" id="g5695" transform="matrix(0.99978,0.021105,-0.021105,0.99978,30.301,3.9211) ">
      <g stroke="null" id="g5697">
       <path stroke="#000000" id="path5699" d="m-316.326348,1098.620207c0.39555,3.6275 0.15987,6.62885 -0.52643,6.70368s-1.56329,-2.80518 -1.95885,-6.43268c-0.39556,-3.62761 -0.15987,-6.62895 0.52642,-6.70379s1.5633,2.80518 1.95886,6.43279z" fill="#1a1a1a" stroke-linecap="round" stroke-linejoin="round"/>
       <path stroke="#000000" id="path5701" d="m-314.509088,1098.620207c-0.39555,3.6275 -0.15987,6.62885 0.52643,6.70368s1.56329,-2.80518 1.95885,-6.43268c0.39556,-3.62761 0.15987,-6.62895 -0.52642,-6.70379s-1.5633,2.80518 -1.95886,6.43279z" fill="#1a1a1a" stroke-linecap="round" stroke-linejoin="round"/>
      </g>
      <rect stroke="#000000" id="rect5703" height="47.903" width="3.9743" y="1049.694717" x="-317.403118" fill="#800000" stroke-width="0.95429" stroke-linecap="round" stroke-linejoin="round"/>
      <rect stroke="#000000" id="rect5705" rx="2.1429" ry="2.8571" height="26.429" width="14.643" y="1061.794717" x="-322.738118" fill="#666666" stroke-linecap="round" stroke-linejoin="round"/>
     </g>
     <g stroke="null" id="g5707" transform="matrix(0.99978,0.021105,-0.021105,0.99978,57.398,4.4931) ">
      <g stroke="null" id="g5709">
       <path stroke="#000000" id="path5711" d="m-316.326348,1098.620207c0.39555,3.6275 0.15987,6.62885 -0.52643,6.70368s-1.56329,-2.80518 -1.95885,-6.43268c-0.39556,-3.62761 -0.15987,-6.62895 0.52642,-6.70379s1.5633,2.80518 1.95886,6.43279z" fill="#1a1a1a" stroke-linecap="round" stroke-linejoin="round"/>
       <path stroke="#000000" id="path5713" d="m-314.509088,1098.620207c-0.39555,3.6275 -0.15987,6.62885 0.52643,6.70368s1.56329,-2.80518 1.95885,-6.43268c0.39556,-3.62761 0.15987,-6.62895 -0.52642,-6.70379s-1.5633,2.80518 -1.95886,6.43279z" fill="#1a1a1a" stroke-linecap="round" stroke-linejoin="round"/>
      </g>
      <rect stroke="#000000" id="rect5715" height="47.903" width="3.9743" y="1049.694717" x="-317.403118" fill="#800000" stroke-width="0.95429" stroke-linecap="round" stroke-linejoin="round"/>
      <rect stroke="#000000" id="rect5717" rx="2.1429" ry="2.8571" height="26.429" width="14.643" y="1061.794717" x="-322.738118" fill="#666666" stroke-linecap="round" stroke-linejoin="round"/>
     </g>
     <g stroke="null" id="g5719" transform="matrix(0.99978,0.021105,-0.021105,0.99978,84.495,5.0651) ">
      <g stroke="null" id="g5721">
       <path stroke="#000000" id="path5723" d="m-316.326348,1098.620207c0.39555,3.6275 0.15987,6.62885 -0.52643,6.70368s-1.56329,-2.80518 -1.95885,-6.43268c-0.39556,-3.62761 -0.15987,-6.62895 0.52642,-6.70379s1.5633,2.80518 1.95886,6.43279z" fill="#1a1a1a" stroke-linecap="round" stroke-linejoin="round"/>
       <path stroke="#000000" id="path5725" d="m-314.509088,1098.620207c-0.39555,3.6275 -0.15987,6.62885 0.52643,6.70368s1.56329,-2.80518 1.95885,-6.43268c0.39556,-3.62761 0.15987,-6.62895 -0.52642,-6.70379s-1.5633,2.80518 -1.95886,6.43279z" fill="#1a1a1a" stroke-linecap="round" stroke-linejoin="round"/>
      </g>
      <rect stroke="#000000" id="rect5727" height="47.903" width="3.9743" y="1049.694717" x="-317.403118" fill="#800000" stroke-width="0.95429" stroke-linecap="round" stroke-linejoin="round"/>
      <rect stroke="#000000" id="rect5729" rx="2.1429" ry="2.8571" height="26.429" width="14.643" y="1061.794717" x="-322.738118" fill="#666666" stroke-linecap="round" stroke-linejoin="round"/>
     </g>
     <g stroke="null" id="g5731" transform="matrix(0.99978,0.021105,-0.021105,0.99978,111.59,5.6371) ">
      <g stroke="null" id="g5733">
       <path stroke="#000000" id="path5735" d="m-316.326348,1098.620207c0.39555,3.6275 0.15987,6.62885 -0.52643,6.70368s-1.56329,-2.80518 -1.95885,-6.43268c-0.39556,-3.62761 -0.15987,-6.62895 0.52642,-6.70379s1.5633,2.80518 1.95886,6.43279z" fill="#1a1a1a" stroke-linecap="round" stroke-linejoin="round"/>
       <path stroke="#000000" id="path5737" d="m-314.509088,1098.620207c-0.39555,3.6275 -0.15987,6.62885 0.52643,6.70368s1.56329,-2.80518 1.95885,-6.43268c0.39556,-3.62761 0.15987,-6.62895 -0.52642,-6.70379s-1.5633,2.80518 -1.95886,6.43279z" fill="#1a1a1a" stroke-linecap="round" stroke-linejoin="round"/>
      </g>
      <rect stroke="#000000" id="rect5739" height="47.903" width="3.9743" y="1049.694717" x="-317.403118" fill="#800000" stroke-width="0.95429" stroke-linecap="round" stroke-linejoin="round"/>
      <rect stroke="#000000" id="rect5741" rx="2.1429" ry="2.8571" height="26.429" width="14.643" y="1061.794717" x="-322.738118" fill="#666666" stroke-linecap="round" stroke-linejoin="round"/>
     </g>
     <g stroke="null" id="g5743" transform="matrix(0.99978,0.021105,-0.021105,0.99978,138.69,6.2091) ">
      <g stroke="null" id="g5745">
       <path stroke="#000000" id="path5747" d="m-316.326348,1098.620207c0.39555,3.6275 0.15987,6.62885 -0.52643,6.70368s-1.56329,-2.80518 -1.95885,-6.43268c-0.39556,-3.62761 -0.15987,-6.62895 0.52642,-6.70379s1.5633,2.80518 1.95886,6.43279z" fill="#1a1a1a" stroke-linecap="round" stroke-linejoin="round"/>
       <path stroke="#000000" id="path5749" d="m-314.509088,1098.620207c-0.39555,3.6275 -0.15987,6.62885 0.52643,6.70368s1.56329,-2.80518 1.95885,-6.43268c0.39556,-3.62761 0.15987,-6.62895 -0.52642,-6.70379s-1.5633,2.80518 -1.95886,6.43279z" fill="#1a1a1a" stroke-linecap="round" stroke-linejoin="round"/>
      </g>
      <rect stroke="#000000" id="rect5751" height="47.903" width="3.9743" y="1049.694717" x="-317.403118" fill="#800000" stroke-width="0.95429" stroke-linecap="round" stroke-linejoin="round"/>
      <rect stroke="#000000" id="rect5753" rx="2.1429" ry="2.8571" height="26.429" width="14.643" y="1061.794717" x="-322.738118" fill="#666666" stroke-linecap="round" stroke-linejoin="round"/>
     </g>
     <g stroke="null" id="g5755" transform="matrix(0.99978,0.021105,-0.021105,0.99978,165.79,6.7811) ">
      <g stroke="null" id="g5757">
       <path stroke="#000000" id="path5759" d="m-316.326348,1098.620207c0.39555,3.6275 0.15987,6.62885 -0.52643,6.70368s-1.56329,-2.80518 -1.95885,-6.43268c-0.39556,-3.62761 -0.15987,-6.62895 0.52642,-6.70379s1.5633,2.80518 1.95886,6.43279z" fill="#1a1a1a" stroke-linecap="round" stroke-linejoin="round"/>
       <path stroke="#000000" id="path5761" d="m-314.509088,1098.620207c-0.39555,3.6275 -0.15987,6.62885 0.52643,6.70368s1.56329,-2.80518 1.95885,-6.43268c0.39556,-3.62761 0.15987,-6.62895 -0.52642,-6.70379s-1.5633,2.80518 -1.95886,6.43279z" fill="#1a1a1a" stroke-linecap="round" stroke-linejoin="round"/>
      </g>
      <rect stroke="#000000" id="rect5763" height="47.903" width="3.9743" y="1049.694717" x="-317.403118" fill="#800000" stroke-width="0.95429" stroke-linecap="round" stroke-linejoin="round"/>
      <rect stroke="#000000" id="rect5765" rx="2.1429" ry="2.8571" height="26.429" width="14.643" y="1061.794717" x="-322.738118" fill="#666666" stroke-linecap="round" stroke-linejoin="round"/>
     </g>
     <g stroke="null" id="g5767" transform="matrix(0.99978,0.021105,-0.021105,0.99978,192.88,7.3531) ">
      <g stroke="null" id="g5769">
       <path stroke="#000000" id="path5771" d="m-316.326348,1098.620207c0.39555,3.6275 0.15987,6.62885 -0.52643,6.70368s-1.56329,-2.80518 -1.95885,-6.43268c-0.39556,-3.62761 -0.15987,-6.62895 0.52642,-6.70379s1.5633,2.80518 1.95886,6.43279z" fill="#1a1a1a" stroke-linecap="round" stroke-linejoin="round"/>
       <path stroke="#000000" id="path5773" d="m-314.509088,1098.620207c-0.39555,3.6275 -0.15987,6.62885 0.52643,6.70368s1.56329,-2.80518 1.95885,-6.43268c0.39556,-3.62761 0.15987,-6.62895 -0.52642,-6.70379s-1.5633,2.80518 -1.95886,6.43279z" fill="#1a1a1a" stroke-linecap="round" stroke-linejoin="round"/>
      </g>
      <rect stroke="#000000" id="rect5775" height="47.903" width="3.9743" y="1049.694717" x="-317.403118" fill="#800000" stroke-width="0.95429" stroke-linecap="round" stroke-linejoin="round"/>
      <rect stroke="#000000" id="rect5777" rx="2.1429" ry="2.8571" height="26.429" width="14.643" y="1061.794717" x="-322.738118" fill="#666666" stroke-linecap="round" stroke-linejoin="round"/>
     </g>
     <g stroke="null" id="g5779" transform="matrix(0.99978,0.021105,-0.021105,0.99978,219.98,7.9251) ">
      <g stroke="null" id="g5781">
       <path stroke="#000000" id="path5783" d="m-316.326348,1098.620207c0.39555,3.6275 0.15987,6.62885 -0.52643,6.70368s-1.56329,-2.80518 -1.95885,-6.43268c-0.39556,-3.62761 -0.15987,-6.62895 0.52642,-6.70379s1.5633,2.80518 1.95886,6.43279z" fill="#1a1a1a" stroke-linecap="round" stroke-linejoin="round"/>
       <path stroke="#000000" id="path5785" d="m-314.509088,1098.620207c-0.39555,3.6275 -0.15987,6.62885 0.52643,6.70368s1.56329,-2.80518 1.95885,-6.43268c0.39556,-3.62761 0.15987,-6.62895 -0.52642,-6.70379s-1.5633,2.80518 -1.95886,6.43279z" fill="#1a1a1a" stroke-linecap="round" stroke-linejoin="round"/>
      </g>
      <rect stroke="#000000" id="rect5787" height="47.903" width="3.9743" y="1049.694717" x="-317.403118" fill="#800000" stroke-width="0.95429" stroke-linecap="round" stroke-linejoin="round"/>
      <rect stroke="#000000" id="rect5789" rx="2.1429" ry="2.8571" height="26.429" width="14.643" y="1061.794717" x="-322.738118" fill="#666666" stroke-linecap="round" stroke-linejoin="round"/>
     </g>
     <g stroke="null" id="g5791" transform="matrix(0.99978,0.021105,-0.021105,0.99978,247.08,8.4971) ">
      <g stroke="null" id="g5793">
       <path stroke="#000000" id="path5795" d="m-316.326348,1098.620207c0.39555,3.6275 0.15987,6.62885 -0.52643,6.70368s-1.56329,-2.80518 -1.95885,-6.43268c-0.39556,-3.62761 -0.15987,-6.62895 0.52642,-6.70379s1.5633,2.80518 1.95886,6.43279z" fill="#1a1a1a" stroke-linecap="round" stroke-linejoin="round"/>
       <path stroke="#000000" id="path5797" d="m-314.509088,1098.620207c-0.39555,3.6275 -0.15987,6.62885 0.52643,6.70368s1.56329,-2.80518 1.95885,-6.43268c0.39556,-3.62761 0.15987,-6.62895 -0.52642,-6.70379s-1.5633,2.80518 -1.95886,6.43279z" fill="#1a1a1a" stroke-linecap="round" stroke-linejoin="round"/>
      </g>
      <rect stroke="#000000" id="rect5799" height="47.903" width="3.9743" y="1049.694717" x="-317.403118" fill="#800000" stroke-width="0.95429" stroke-linecap="round" stroke-linejoin="round"/>
      <rect stroke="#000000" id="rect5801" rx="2.1429" ry="2.8571" height="26.429" width="14.643" y="1061.794717" x="-322.738118" fill="#666666" stroke-linecap="round" stroke-linejoin="round"/>
     </g>
     <rect stroke="#000000" id="rect5674" transform="matrix(0.99981,0.019488,-0.058333,0.9983,0,0) " height="5.3053" width="266.43" y="1048.985284" x="-283.949747" fill="#800000" stroke-width="1.0004" stroke-linecap="round" stroke-linejoin="round"/>
    </g>
   </g>
  </g>
 </g>
</svg>