<svg width="270" height="215.64" xmlns="http://www.w3.org/2000/svg">

 <metadata>image/svg+xmlOpenclipart</metadata>
 <g>
  <title>background</title>
  <rect fill="none" id="canvas_background" height="217.64" width="272" y="-1" x="-1"/>
 </g>
 <g>
  <title>Layer 1</title>
  <g id="layer1">
   <g id="g4195">
    <path stroke="#000000" stroke-width="1px" fill="#000000" d="m140.195992,127.001997l-3.0576,34.508l4.6247,0.40978l3.0576,-34.508l-4.6247,-0.40978z" id="path3765"/>
    <g id="g4150">
     <path stroke="#000000" stroke-width="1px" fill="#000000" d="m127.225992,20.711997l0,4.7982l29.294,0l0,-5.3033l-29.294,0.5051z" id="path3767"/>
     <path stroke="#000000" stroke-width="1px" fill="#000000" d="m117.375992,99.921997l48.992,0l0,4.7982l-48.992,0l0,-4.7982z" id="path3769"/>
     <path stroke="#000000" stroke-width="1.1756px" fill="#aa0000" d="m129.395992,64.981997c-1.7857,-1.0714 0.71429,-61.792 0.71429,-61.792c1.25,-2.1429 22.86,-2.1429 23.753,0c0,0 2.3214,60.517 0.89286,61.767c0.71429,3.0357 -27.146,2.3468 -25.36,0.0254l-0.00015,-0.0004z" id="path2987"/>
     <rect stroke-linejoin="round" stroke="#000000" stroke-linecap="round" fill="#666666" x="95.775992" y="77.321997" width="21.786" height="50" ry="6.985" rx="7.6429" id="rect2989"/>
     <rect stroke-linejoin="round" stroke="#000000" stroke-linecap="round" fill="#666666" x="166.415992" y="77.321997" width="21.786" height="50" ry="6.985" rx="7.6429" id="rect2991"/>
     <rect stroke-linejoin="round" stroke="#000000" stroke-linecap="round" fill="#666666" x="156.505992" y="6.481997" width="14.888" height="32.746" ry="4.5746" rx="5.2232" id="rect2993"/>
     <rect stroke-linejoin="round" stroke="#000000" stroke-linecap="round" fill="#666666" x="112.435992" y="6.481997" width="14.888" height="32.746" ry="4.5746" rx="5.2232" id="rect2995"/>
     <path stroke="#4d4d4d" stroke-width="1px" fill="none" d="m96.275992,123.391997l10.376,-5.9907l10.27,5.9296" id="path3775"/>
     <path stroke="#4d4d4d" stroke-width="1px" fill="none" d="m96.275992,115.711997l10.376,-5.9907l10.27,5.9296" id="path3777"/>
     <path stroke="#4d4d4d" stroke-width="1px" fill="none" d="m96.275992,108.031997l10.587,-6.1126l10.355,5.9786" id="path3787"/>
     <path stroke="#4d4d4d" stroke-width="1px" fill="none" d="m95.915992,99.281997l10.714,-4.1071l10.714,4.4643" id="path3789"/>
     <path stroke="#4d4d4d" stroke-width="1px" fill="none" d="m95.205992,93.211997l11.429,-3.75l10.893,4.2857" id="path3791"/>
     <path stroke="#4d4d4d" stroke-width="1px" fill="none" d="m95.555992,86.961997l11.25,-3.3928l10.536,3.3928" id="path3793"/>
     <path stroke="#4d4d4d" stroke-width="1px" fill="none" d="m96.275992,81.781997l10.357,-2.1428l10.714,2.5" id="path3795"/>
     <rect stroke-linejoin="round" stroke="#000000" stroke-linecap="round" fill="none" x="95.775992" y="77.321997" width="21.786" height="50" ry="6.985" rx="7.6429" id="rect3797"/>
     <path stroke="#4d4d4d" stroke-width="1px" fill="none" d="m166.985992,123.211997l10.376,-5.9907l10.27,5.9296" id="path3801"/>
     <path stroke="#4d4d4d" stroke-width="1px" fill="none" d="m166.985992,115.531997l10.376,-5.9907l10.27,5.9296" id="path3803"/>
     <path stroke="#4d4d4d" stroke-width="1px" fill="none" d="m166.985992,107.851997l10.587,-6.1126l10.355,5.9786" id="path3805"/>
     <path stroke="#4d4d4d" stroke-width="1px" fill="none" d="m166.625992,99.101997l10.714,-4.1071l10.714,4.4643" id="path3807"/>
     <path stroke="#4d4d4d" stroke-width="1px" fill="none" d="m165.915992,93.031997l11.429,-3.75l10.893,4.2857" id="path3809"/>
     <path stroke="#4d4d4d" stroke-width="1px" fill="none" d="m166.275992,86.781997l11.25,-3.3928l10.536,3.3928" id="path3811"/>
     <path stroke="#4d4d4d" stroke-width="1px" fill="none" d="m166.985992,81.601997l10.357,-2.1428l10.714,2.5" id="path3813"/>
     <rect stroke-linejoin="round" stroke="#000000" stroke-linecap="round" fill="none" x="166.485992" y="77.141997" width="21.786" height="50" ry="6.985" rx="7.6429" id="rect3799"/>
     <g transform="matrix(0.6635,0,0,0.65336,141.55,114.87) " id="g3853">
      <path stroke="#4d4d4d" stroke-width="1px" fill="none" d="m-42.928898,-119.89939l10.376,-5.9907l10.27,5.9296" id="path3837"/>
      <path stroke="#4d4d4d" stroke-width="1px" fill="none" d="m-42.928898,-127.57939l10.376,-5.9907l10.27,5.9296" id="path3839"/>
      <path stroke="#4d4d4d" stroke-width="1px" fill="none" d="m-42.928898,-135.25939l10.587,-6.1126l10.355,5.9786" id="path3841"/>
      <path stroke="#4d4d4d" stroke-width="1px" fill="none" d="m-43.288898,-144.00939l10.714,-4.1071l10.714,4.4643" id="path3843"/>
      <path stroke="#4d4d4d" stroke-width="1px" fill="none" d="m-43.998898,-150.07939l11.429,-3.75l10.893,4.2857" id="path3845"/>
      <path stroke="#4d4d4d" stroke-width="1px" fill="none" d="m-43.648898,-156.32939l11.25,-3.3928l10.536,3.3928" id="path3847"/>
      <path stroke="#4d4d4d" stroke-width="1px" fill="none" d="m-42.928898,-161.50939l10.357,-2.1428l10.714,2.5" id="path3849"/>
      <rect stroke-linejoin="round" stroke="#000000" stroke-linecap="round" fill="none" x="-43.428898" y="-165.96939" width="21.786" height="50" ry="6.985" rx="7.6429" id="rect3851"/>
     </g>
     <g transform="matrix(0.6635,0,0,0.65336,185.48,115.05) " id="g3863">
      <path stroke="#4d4d4d" stroke-width="1px" fill="none" d="m-42.928898,-119.89939l10.376,-5.9907l10.27,5.9296" id="path3865"/>
      <path stroke="#4d4d4d" stroke-width="1px" fill="none" d="m-42.928898,-127.57939l10.376,-5.9907l10.27,5.9296" id="path3867"/>
      <path stroke="#4d4d4d" stroke-width="1px" fill="none" d="m-42.928898,-135.25939l10.587,-6.1126l10.355,5.9786" id="path3869"/>
      <path stroke="#4d4d4d" stroke-width="1px" fill="none" d="m-43.288898,-144.00939l10.714,-4.1071l10.714,4.4643" id="path3871"/>
      <path stroke="#4d4d4d" stroke-width="1px" fill="none" d="m-43.998898,-150.07939l11.429,-3.75l10.893,4.2857" id="path3873"/>
      <path stroke="#4d4d4d" stroke-width="1px" fill="none" d="m-43.648898,-156.32939l11.25,-3.3928l10.536,3.3928" id="path3875"/>
      <path stroke="#4d4d4d" stroke-width="1px" fill="none" d="m-42.928898,-161.50939l10.357,-2.1428l10.714,2.5" id="path3877"/>
      <rect stroke-linejoin="round" stroke="#000000" stroke-linecap="round" fill="none" x="-43.428898" y="-165.96939" width="21.786" height="50" ry="6.985" rx="7.6429" id="rect3879"/>
     </g>
     <path stroke="#000000" stroke-width="1px" fill="#aa0000" d="m120.555992,78.571997l0,48.571c1.6071,1.7857 41.25,1.25 42.857,0l0,-49.286s-2.793,-13.176 -5.8288,-13.712l-31.314,0c-3.0357,0.17857 -5.7143,14.426 -5.7143,14.426l0.0001,0.001z" id="path2985"/>
     <path stroke-linejoin="round" stroke="#000000" stroke-linecap="round" fill="#ffffff" d="m146.283995,73.276997c0,2.371 -1.9221,4.2932 -4.2932,4.2932c-2.371,0 -4.2931,-1.9221 -4.2931,-4.2932c0,-2.371 1.9221,-4.2932 4.2931,-4.2932s4.2932,1.9221 4.2932,4.2932z" id="path3771"/>
    </g>
    <g transform="matrix(0.99982,0.019072,-0.019072,0.99982,1.5566,-9.6936) " id="g4020">
     <g id="g3987">
      <path stroke-linejoin="round" stroke="#000000" stroke-linecap="round" fill="#000000" d="m242.254413,177.183101c0,4.5366 -0.55964,8.2143 -1.25,8.2143c-0.69035,0 -1.25,-3.6777 -1.25,-8.2143s0.55965,-8.2143 1.25,-8.2143c0.69036,0 1.25,3.6777 1.25,8.2143z" id="path3923"/>
      <path stroke-linejoin="round" stroke="#000000" stroke-linecap="round" fill="#000000" d="m225.894427,177.183101c0,4.5366 -0.55964,8.2143 -1.25,8.2143c-0.69035,0 -1.25,-3.6777 -1.25,-8.2143s0.55965,-8.2143 1.25,-8.2143c0.69036,0 1.25,3.6777 1.25,8.2143z" id="path3925"/>
      <path stroke-linejoin="round" stroke="#000000" stroke-linecap="round" fill="#000000" d="m209.534427,177.183101c0,4.5366 -0.55964,8.2143 -1.25,8.2143c-0.69035,0 -1.25,-3.6777 -1.25,-8.2143s0.55965,-8.2143 1.25,-8.2143c0.69036,0 1.25,3.6777 1.25,8.2143z" id="path3927"/>
      <path stroke-linejoin="round" stroke="#000000" stroke-linecap="round" fill="#000000" d="m193.184421,177.183101c0,4.5366 -0.55964,8.2143 -1.25,8.2143c-0.69035,0 -1.25,-3.6777 -1.25,-8.2143s0.55965,-8.2143 1.25,-8.2143c0.69036,0 1.25,3.6777 1.25,8.2143z" id="path3929"/>
      <path stroke-linejoin="round" stroke="#000000" stroke-linecap="round" fill="#000000" d="m176.82442,177.183101c0,4.5366 -0.55964,8.2143 -1.25,8.2143c-0.69035,0 -1.25,-3.6777 -1.25,-8.2143s0.55965,-8.2143 1.25,-8.2143c0.69036,0 1.25,3.6777 1.25,8.2143z" id="path3931"/>
      <path stroke-linejoin="round" stroke="#000000" stroke-linecap="round" fill="#000000" d="m160.464419,177.183101c0,4.5366 -0.55964,8.2143 -1.25,8.2143c-0.69035,0 -1.25,-3.6777 -1.25,-8.2143s0.55965,-8.2143 1.25,-8.2143c0.69036,0 1.25,3.6777 1.25,8.2143z" id="path3933"/>
      <path stroke-linejoin="round" stroke="#000000" stroke-linecap="round" fill="#000000" d="m144.114421,177.183101c0,4.5366 -0.55964,8.2143 -1.25,8.2143c-0.69035,0 -1.25,-3.6777 -1.25,-8.2143s0.55965,-8.2143 1.25,-8.2143c0.69036,0 1.25,3.6777 1.25,8.2143z" id="path3935"/>
      <path stroke-linejoin="round" stroke="#000000" stroke-linecap="round" fill="#000000" d="m127.75442,177.183101c0,4.5366 -0.55964,8.2143 -1.25,8.2143c-0.69035,0 -1.25,-3.6777 -1.25,-8.2143s0.55965,-8.2143 1.25,-8.2143c0.69036,0 1.25,3.6777 1.25,8.2143z" id="path3937"/>
      <path stroke-linejoin="round" stroke="#000000" stroke-linecap="round" fill="#000000" d="m111.395419,177.183101c0,4.5366 -0.55964,8.2143 -1.25,8.2143c-0.69035,0 -1.25,-3.6777 -1.25,-8.2143s0.55965,-8.2143 1.25,-8.2143c0.69036,0 1.25,3.6777 1.25,8.2143z" id="path3939"/>
      <path stroke-linejoin="round" stroke="#000000" stroke-linecap="round" fill="#000000" d="m95.038417,177.183101c0,4.5366 -0.55964,8.2143 -1.25,8.2143c-0.69035,0 -1.25,-3.6777 -1.25,-8.2143s0.55965,-8.2143 1.25,-8.2143c0.69036,0 1.25,3.6777 1.25,8.2143z" id="path3941"/>
      <path stroke-linejoin="round" stroke="#000000" stroke-linecap="round" fill="#000000" d="m78.681418,177.183101c0,4.5366 -0.55964,8.2143 -1.25,8.2143c-0.69035,0 -1.25,-3.6777 -1.25,-8.2143s0.55965,-8.2143 1.25,-8.2143c0.69036,0 1.25,3.6777 1.25,8.2143z" id="path3943"/>
      <path stroke-linejoin="round" stroke="#000000" stroke-linecap="round" fill="#000000" d="m62.32442,177.183101c0,4.5366 -0.55964,8.2143 -1.25,8.2143c-0.69035,0 -1.25,-3.6777 -1.25,-8.2143s0.55965,-8.2143 1.25,-8.2143c0.69036,0 1.25,3.6777 1.25,8.2143z" id="path3945"/>
      <path stroke-linejoin="round" stroke="#000000" stroke-linecap="round" fill="#000000" d="m45.96742,177.183101c0,4.5366 -0.55964,8.2143 -1.25,8.2143c-0.69035,0 -1.25,-3.6777 -1.25,-8.2143s0.55965,-8.2143 1.25,-8.2143c0.69036,0 1.25,3.6777 1.25,8.2143z" id="path3947"/>
      <path stroke-linejoin="round" stroke="#000000" stroke-linecap="round" fill="#000000" d="m29.61042,177.183101c0,4.5366 -0.55964,8.2143 -1.25,8.2143c-0.69035,0 -1.25,-3.6777 -1.25,-8.2143s0.55965,-8.2143 1.25,-8.2143c0.69036,0 1.25,3.6777 1.25,8.2143z" id="path3949"/>
      <path stroke-linejoin="round" stroke="#000000" stroke-linecap="round" fill="#000000" d="m13.25302,177.183101c0,4.5366 -0.55964,8.2143 -1.25,8.2143c-0.69035,0 -1.25,-3.6777 -1.25,-8.2143s0.55965,-8.2143 1.25,-8.2143c0.69036,0 1.25,3.6777 1.25,8.2143z" id="path3951"/>
      <path stroke-linejoin="round" stroke="#000000" stroke-linecap="round" fill="#000000" d="m258.614413,176.826101c0,4.5366 -0.55964,8.2143 -1.25,8.2143c-0.69035,0 -1.25,-3.6777 -1.25,-8.2143s0.55965,-8.2143 1.25,-8.2143c0.69036,0 1.25,3.6777 1.25,8.2143z" id="path3953"/>
      <path stroke-linejoin="round" stroke="#000000" stroke-linecap="round" fill="#000000" d="m234.754413,189.325701c0,4.5366 -0.55964,8.2143 -1.25,8.2143c-0.69035,0 -1.25,-3.6777 -1.25,-8.2143s0.55965,-8.2143 1.25,-8.2143c0.69036,0 1.25,3.6777 1.25,8.2143z" id="path3955"/>
      <path stroke-linejoin="round" stroke="#000000" stroke-linecap="round" fill="#000000" d="m218.394427,189.325701c0,4.5366 -0.55964,8.2143 -1.25,8.2143c-0.69035,0 -1.25,-3.6777 -1.25,-8.2143s0.55965,-8.2143 1.25,-8.2143c0.69036,0 1.25,3.6777 1.25,8.2143z" id="path3957"/>
      <path stroke-linejoin="round" stroke="#000000" stroke-linecap="round" fill="#000000" d="m202.034427,189.325701c0,4.5366 -0.55964,8.2143 -1.25,8.2143c-0.69035,0 -1.25,-3.6777 -1.25,-8.2143s0.55965,-8.2143 1.25,-8.2143c0.69036,0 1.25,3.6777 1.25,8.2143z" id="path3959"/>
      <path stroke-linejoin="round" stroke="#000000" stroke-linecap="round" fill="#000000" d="m185.684421,189.325701c0,4.5366 -0.55964,8.2143 -1.25,8.2143c-0.69035,0 -1.25,-3.6777 -1.25,-8.2143s0.55965,-8.2143 1.25,-8.2143c0.69036,0 1.25,3.6777 1.25,8.2143z" id="path3961"/>
      <path stroke-linejoin="round" stroke="#000000" stroke-linecap="round" fill="#000000" d="m169.32442,189.325701c0,4.5366 -0.55964,8.2143 -1.25,8.2143c-0.69035,0 -1.25,-3.6777 -1.25,-8.2143s0.55965,-8.2143 1.25,-8.2143c0.69036,0 1.25,3.6777 1.25,8.2143z" id="path3963"/>
      <path stroke-linejoin="round" stroke="#000000" stroke-linecap="round" fill="#000000" d="m152.964419,189.325701c0,4.5366 -0.55964,8.2143 -1.25,8.2143c-0.69035,0 -1.25,-3.6777 -1.25,-8.2143s0.55965,-8.2143 1.25,-8.2143c0.69036,0 1.25,3.6777 1.25,8.2143z" id="path3965"/>
      <path stroke-linejoin="round" stroke="#000000" stroke-linecap="round" fill="#000000" d="m136.614421,189.325701c0,4.5366 -0.55964,8.2143 -1.25,8.2143c-0.69035,0 -1.25,-3.6777 -1.25,-8.2143s0.55965,-8.2143 1.25,-8.2143c0.69036,0 1.25,3.6777 1.25,8.2143z" id="path3967"/>
      <path stroke-linejoin="round" stroke="#000000" stroke-linecap="round" fill="#000000" d="m120.25442,189.325701c0,4.5366 -0.55964,8.2143 -1.25,8.2143c-0.69035,0 -1.25,-3.6777 -1.25,-8.2143s0.55965,-8.2143 1.25,-8.2143c0.69036,0 1.25,3.6777 1.25,8.2143z" id="path3969"/>
      <path stroke-linejoin="round" stroke="#000000" stroke-linecap="round" fill="#000000" d="m103.895419,189.325701c0,4.5366 -0.55964,8.2143 -1.25,8.2143c-0.69035,0 -1.25,-3.6777 -1.25,-8.2143s0.55965,-8.2143 1.25,-8.2143c0.69036,0 1.25,3.6777 1.25,8.2143z" id="path3971"/>
      <path stroke-linejoin="round" stroke="#000000" stroke-linecap="round" fill="#000000" d="m87.538417,189.325701c0,4.5366 -0.55964,8.2143 -1.25,8.2143c-0.69035,0 -1.25,-3.6777 -1.25,-8.2143s0.55965,-8.2143 1.25,-8.2143c0.69036,0 1.25,3.6777 1.25,8.2143z" id="path3973"/>
      <path stroke-linejoin="round" stroke="#000000" stroke-linecap="round" fill="#000000" d="m71.181418,189.325701c0,4.5366 -0.55964,8.2143 -1.25,8.2143c-0.69035,0 -1.25,-3.6777 -1.25,-8.2143s0.55965,-8.2143 1.25,-8.2143c0.69036,0 1.25,3.6777 1.25,8.2143z" id="path3975"/>
      <path stroke-linejoin="round" stroke="#000000" stroke-linecap="round" fill="#000000" d="m54.82442,189.325701c0,4.5366 -0.55964,8.2143 -1.25,8.2143c-0.69035,0 -1.25,-3.6777 -1.25,-8.2143s0.55965,-8.2143 1.25,-8.2143c0.69036,0 1.25,3.6777 1.25,8.2143z" id="path3977"/>
      <path stroke-linejoin="round" stroke="#000000" stroke-linecap="round" fill="#000000" d="m38.46742,189.325701c0,4.5366 -0.55964,8.2143 -1.25,8.2143c-0.69035,0 -1.25,-3.6777 -1.25,-8.2143s0.55965,-8.2143 1.25,-8.2143c0.69036,0 1.25,3.6777 1.25,8.2143z" id="path3979"/>
      <path stroke-linejoin="round" stroke="#000000" stroke-linecap="round" fill="#000000" d="m22.11012,189.325701c0,4.5366 -0.55964,8.2143 -1.25,8.2143c-0.69035,0 -1.25,-3.6777 -1.25,-8.2143s0.55965,-8.2143 1.25,-8.2143c0.69036,0 1.25,3.6777 1.25,8.2143z" id="path3981"/>
      <path stroke-linejoin="round" stroke="#000000" stroke-linecap="round" fill="#000000" d="m251.114413,188.968501c0,4.5366 -0.55964,8.2143 -1.25,8.2143c-0.69035,0 -1.25,-3.6777 -1.25,-8.2143s0.55965,-8.2143 1.25,-8.2143c0.69036,0 1.25,3.6777 1.25,8.2143z" id="path3985"/>
     </g>
     <path stroke="#000000" stroke-width="0.76757px" fill="#550000" d="m9.21442,176.277101l250.95,0l0,2.3753l-249.43,0l-1.52,-2.3753z" id="path3898"/>
     <path stroke="#000000" stroke-width="0.65569px" fill="#550000" d="m12.01442,184.797101l245.34,0l0,1.7729l-243.86,0l-1.48,-1.7729z" id="path3900"/>
     <path stroke="#000000" stroke-width="1px" fill="#800000" d="m72.18442,193.537101l-3.2143,-22.5l4.6429,0l3.2143,22.5l-4.6429,0z" id="path3889"/>
     <path stroke="#000000" stroke-width="1px" fill="#800000" d="m197.89442,193.537101l3.2143,-22.5l-4.6429,0l-3.2143,22.5l4.6429,0z" id="path3895"/>
     <path stroke="#000000" stroke-width="1px" fill="#800000" d="m11.22442,196.607101l-9.067,-28.562l265.91,0l-9.6027,28.562l-247.2403,0zm4.9955,-3.5759l237.48,0l6.683,-21.411l-251.25,-0.35714l7.087,21.76814z" id="path3881"/>
     <path stroke="#000000" stroke-width="1px" fill="#800000" d="m129.03442,171.397101l-112.92,21.638l12.289,-0.0631l108.48,-20.86l109.14,20.86l7.6244,0l-106.4,-21.575l-18.2134,0.0001z" id="path3887"/>
    </g>
   </g>
   <g transform="matrix(0.96798,0,0,0.96798,340.13,-825.42) " id="g3125">
    <path stroke="#000000" stroke-width="1.022px" fill="#000000" d="m117.017944,973.131141l-12.179,38.936l3.7891,1.6798l12.178,-38.936l-3.7881,-1.6798z" id="path4851"/>
    <g id="g4853">
     <path stroke="#000000" stroke-width="1px" fill="#000000" d="m100.497952,873.461163l0,4.7982l29.294,0l0,-5.3033l-29.294,0.5051z" id="path4855"/>
     <path stroke="#000000" stroke-width="1px" fill="#000000" d="m90.647952,952.671163l48.992,0l0,4.7982l-48.992,0l0,-4.7982z" id="path4857"/>
     <path stroke="#000000" stroke-width="1.1756px" fill="#aa0000" d="m102.667952,917.731163c-1.7857,-1.0714 0.71429,-61.792 0.71429,-61.792c1.25,-2.1429 22.86,-2.1429 23.753,0c0,0 2.3214,60.517 0.89286,61.767c0.71429,3.0357 -27.146,2.3468 -25.36,0.0254l-0.00015,-0.0004z" id="path4859"/>
     <rect stroke-linejoin="round" stroke="#000000" stroke-linecap="round" fill="#666666" x="69.047952" y="930.071163" width="21.786" height="50" ry="6.985" rx="7.6429" id="rect4861"/>
     <rect stroke-linejoin="round" stroke="#000000" stroke-linecap="round" fill="#666666" x="139.687952" y="930.071163" width="21.786" height="50" ry="6.985" rx="7.6429" id="rect4863"/>
     <rect stroke-linejoin="round" stroke="#000000" stroke-linecap="round" fill="#666666" x="129.777952" y="859.231163" width="14.888" height="32.746" ry="4.5746" rx="5.2232" id="rect4865"/>
     <rect stroke-linejoin="round" stroke="#000000" stroke-linecap="round" fill="#666666" x="85.707952" y="859.231163" width="14.888" height="32.746" ry="4.5746" rx="5.2232" id="rect4867"/>
     <path stroke="#4d4d4d" stroke-width="1px" fill="none" d="m69.547952,976.141163l10.376,-5.9907l10.27,5.9296" id="path4869"/>
     <path stroke="#4d4d4d" stroke-width="1px" fill="none" d="m69.547952,968.461163l10.376,-5.9907l10.27,5.9296" id="path4871"/>
     <path stroke="#4d4d4d" stroke-width="1px" fill="none" d="m69.547952,960.781163l10.587,-6.1126l10.355,5.9786" id="path4873"/>
     <path stroke="#4d4d4d" stroke-width="1px" fill="none" d="m69.187952,952.031163l10.714,-4.1071l10.714,4.4643" id="path4875"/>
     <path stroke="#4d4d4d" stroke-width="1px" fill="none" d="m68.477952,945.961163l11.429,-3.75l10.893,4.2857" id="path4877"/>
     <path stroke="#4d4d4d" stroke-width="1px" fill="none" d="m68.827952,939.711163l11.25,-3.3928l10.536,3.3928" id="path4879"/>
     <path stroke="#4d4d4d" stroke-width="1px" fill="none" d="m69.547952,934.531163l10.357,-2.1428l10.714,2.5" id="path4881"/>
     <rect stroke-linejoin="round" stroke="#000000" stroke-linecap="round" fill="none" x="69.047952" y="930.071163" width="21.786" height="50" ry="6.985" rx="7.6429" id="rect4883"/>
     <path stroke="#4d4d4d" stroke-width="1px" fill="none" d="m140.257952,975.961163l10.376,-5.9907l10.27,5.9296" id="path4885"/>
     <path stroke="#4d4d4d" stroke-width="1px" fill="none" d="m140.257952,968.281163l10.376,-5.9907l10.27,5.9296" id="path4887"/>
     <path stroke="#4d4d4d" stroke-width="1px" fill="none" d="m140.257952,960.601163l10.587,-6.1126l10.355,5.9786" id="path4889"/>
     <path stroke="#4d4d4d" stroke-width="1px" fill="none" d="m139.897952,951.851163l10.714,-4.1071l10.714,4.4643" id="path4891"/>
     <path stroke="#4d4d4d" stroke-width="1px" fill="none" d="m139.187952,945.781163l11.429,-3.75l10.893,4.2857" id="path4893"/>
     <path stroke="#4d4d4d" stroke-width="1px" fill="none" d="m139.547952,939.531163l11.25,-3.3928l10.536,3.3928" id="path4895"/>
     <path stroke="#4d4d4d" stroke-width="1px" fill="none" d="m140.257952,934.351163l10.357,-2.1428l10.714,2.5" id="path4897"/>
     <rect stroke-linejoin="round" stroke="#000000" stroke-linecap="round" fill="none" x="139.757952" y="929.891163" width="21.786" height="50" ry="6.985" rx="7.6429" id="rect4899"/>
     <g transform="matrix(0.6635,0,0,0.65336,141.55,114.87) " id="g4901">
      <path stroke="#4d4d4d" stroke-width="1px" fill="none" d="m-83.212311,1185.275659l10.376,-5.9907l10.27,5.9296" id="path4903"/>
      <path stroke="#4d4d4d" stroke-width="1px" fill="none" d="m-83.212311,1177.595659l10.376,-5.9907l10.27,5.9296" id="path4905"/>
      <path stroke="#4d4d4d" stroke-width="1px" fill="none" d="m-83.212311,1169.915659l10.587,-6.1126l10.355,5.9786" id="path4907"/>
      <path stroke="#4d4d4d" stroke-width="1px" fill="none" d="m-83.572311,1161.165659l10.714,-4.1071l10.714,4.4643" id="path4909"/>
      <path stroke="#4d4d4d" stroke-width="1px" fill="none" d="m-84.282311,1155.095659l11.429,-3.75l10.893,4.2857" id="path4911"/>
      <path stroke="#4d4d4d" stroke-width="1px" fill="none" d="m-83.932311,1148.845659l11.25,-3.3928l10.536,3.3928" id="path4913"/>
      <path stroke="#4d4d4d" stroke-width="1px" fill="none" d="m-83.212311,1143.665659l10.357,-2.1428l10.714,2.5" id="path4915"/>
      <rect stroke-linejoin="round" stroke="#000000" stroke-linecap="round" fill="none" x="-83.712311" y="1139.205659" width="21.786" height="50" ry="6.985" rx="7.6429" id="rect4917"/>
     </g>
     <g transform="matrix(0.6635,0,0,0.65336,185.48,115.05) " id="g4919">
      <path stroke="#4d4d4d" stroke-width="1px" fill="none" d="m-83.212311,1185.275659l10.376,-5.9907l10.27,5.9296" id="path4921"/>
      <path stroke="#4d4d4d" stroke-width="1px" fill="none" d="m-83.212311,1177.595659l10.376,-5.9907l10.27,5.9296" id="path4923"/>
      <path stroke="#4d4d4d" stroke-width="1px" fill="none" d="m-83.212311,1169.915659l10.587,-6.1126l10.355,5.9786" id="path4925"/>
      <path stroke="#4d4d4d" stroke-width="1px" fill="none" d="m-83.572311,1161.165659l10.714,-4.1071l10.714,4.4643" id="path4927"/>
      <path stroke="#4d4d4d" stroke-width="1px" fill="none" d="m-84.282311,1155.095659l11.429,-3.75l10.893,4.2857" id="path4929"/>
      <path stroke="#4d4d4d" stroke-width="1px" fill="none" d="m-83.932311,1148.845659l11.25,-3.3928l10.536,3.3928" id="path4931"/>
      <path stroke="#4d4d4d" stroke-width="1px" fill="none" d="m-83.212311,1143.665659l10.357,-2.1428l10.714,2.5" id="path4933"/>
      <rect stroke-linejoin="round" stroke="#000000" stroke-linecap="round" fill="none" x="-83.712311" y="1139.205659" width="21.786" height="50" ry="6.985" rx="7.6429" id="rect4935"/>
     </g>
     <path stroke="#000000" stroke-width="1px" fill="#aa0000" d="m93.827952,931.321163l0,48.571c1.6071,1.7857 41.25,1.25 42.857,0l0,-49.286s-2.793,-13.176 -5.8288,-13.712l-31.314,0c-3.0357,0.17857 -5.7143,14.426 -5.7143,14.426l0.0001,0.001z" id="path4937"/>
     <path stroke-linejoin="round" stroke="#000000" stroke-linecap="round" fill="#ffffff" d="m119.555955,926.026164c0,2.371 -1.9221,4.2932 -4.2932,4.2932c-2.371,0 -4.2931,-1.9221 -4.2931,-4.2932c0,-2.371 1.9221,-4.2932 4.2931,-4.2932s4.2932,1.9221 4.2932,4.2932z" id="path4939"/>
    </g>
    <g id="g5803">
     <g transform="matrix(0.99978,0.021105,-0.021105,0.99978,3.2035,3.3491) " id="g5688">
      <g id="g5684">
       <path stroke-linejoin="round" stroke="#000000" stroke-linecap="round" fill="#1a1a1a" d="m1.556269,1060.941904c0.395552,3.627507 0.159866,6.628849 -0.526428,6.703684s-1.563296,-2.805177 -1.958847,-6.432684c-0.395562,-3.627607 -0.159877,-6.628949 0.526417,-6.703784s1.563296,2.805177 1.958858,6.432784z" id="path5680"/>
       <path stroke-linejoin="round" stroke="#000000" stroke-linecap="round" fill="#1a1a1a" d="m3.37353,1060.941904c-0.395552,3.627507 -0.159866,6.628849 0.526428,6.703684s1.563296,-2.805177 1.958847,-6.432684c0.395562,-3.627607 0.159877,-6.628949 -0.526417,-6.703784s-1.563296,2.805177 -1.958858,6.432784z" id="path5682"/>
      </g>
      <rect stroke-linejoin="round" stroke="#000000" stroke-linecap="round" stroke-width="0.95429" fill="#800000" x="0.4795" y="1012.016417" width="3.9743" height="47.903" id="rect5678"/>
      <rect stroke-linejoin="round" stroke="#000000" stroke-linecap="round" fill="#666666" x="-4.8555" y="1024.116417" width="14.643" height="26.429" ry="2.8571" rx="2.1429" id="rect5676"/>
     </g>
     <g transform="matrix(0.99978,0.021105,-0.021105,0.99978,30.301,3.9211) " id="g5695">
      <g id="g5697">
       <path stroke-linejoin="round" stroke="#000000" stroke-linecap="round" fill="#1a1a1a" d="m1.556269,1060.941904c0.395552,3.627507 0.159866,6.628849 -0.526428,6.703684s-1.563296,-2.805177 -1.958847,-6.432684c-0.395562,-3.627607 -0.159877,-6.628949 0.526417,-6.703784s1.563296,2.805177 1.958858,6.432784z" id="path5699"/>
       <path stroke-linejoin="round" stroke="#000000" stroke-linecap="round" fill="#1a1a1a" d="m3.37353,1060.941904c-0.395552,3.627507 -0.159866,6.628849 0.526428,6.703684s1.563296,-2.805177 1.958847,-6.432684c0.395562,-3.627607 0.159877,-6.628949 -0.526417,-6.703784s-1.563296,2.805177 -1.958858,6.432784z" id="path5701"/>
      </g>
      <rect stroke-linejoin="round" stroke="#000000" stroke-linecap="round" stroke-width="0.95429" fill="#800000" x="0.4795" y="1012.016417" width="3.9743" height="47.903" id="rect5703"/>
      <rect stroke-linejoin="round" stroke="#000000" stroke-linecap="round" fill="#666666" x="-4.8555" y="1024.116417" width="14.643" height="26.429" ry="2.8571" rx="2.1429" id="rect5705"/>
     </g>
     <g transform="matrix(0.99978,0.021105,-0.021105,0.99978,57.398,4.4931) " id="g5707">
      <g id="g5709">
       <path stroke-linejoin="round" stroke="#000000" stroke-linecap="round" fill="#1a1a1a" d="m1.556269,1060.941904c0.395552,3.627507 0.159866,6.628849 -0.526428,6.703684s-1.563296,-2.805177 -1.958847,-6.432684c-0.395562,-3.627607 -0.159877,-6.628949 0.526417,-6.703784s1.563296,2.805177 1.958858,6.432784z" id="path5711"/>
       <path stroke-linejoin="round" stroke="#000000" stroke-linecap="round" fill="#1a1a1a" d="m3.37353,1060.941904c-0.395552,3.627507 -0.159866,6.628849 0.526428,6.703684s1.563296,-2.805177 1.958847,-6.432684c0.395562,-3.627607 0.159877,-6.628949 -0.526417,-6.703784s-1.563296,2.805177 -1.958858,6.432784z" id="path5713"/>
      </g>
      <rect stroke-linejoin="round" stroke="#000000" stroke-linecap="round" stroke-width="0.95429" fill="#800000" x="0.4795" y="1012.016417" width="3.9743" height="47.903" id="rect5715"/>
      <rect stroke-linejoin="round" stroke="#000000" stroke-linecap="round" fill="#666666" x="-4.8555" y="1024.116417" width="14.643" height="26.429" ry="2.8571" rx="2.1429" id="rect5717"/>
     </g>
     <g transform="matrix(0.99978,0.021105,-0.021105,0.99978,84.495,5.0651) " id="g5719">
      <g id="g5721">
       <path stroke-linejoin="round" stroke="#000000" stroke-linecap="round" fill="#1a1a1a" d="m1.556269,1060.941904c0.395552,3.627507 0.159866,6.628849 -0.526428,6.703684s-1.563296,-2.805177 -1.958847,-6.432684c-0.395562,-3.627607 -0.159877,-6.628949 0.526417,-6.703784s1.563296,2.805177 1.958858,6.432784z" id="path5723"/>
       <path stroke-linejoin="round" stroke="#000000" stroke-linecap="round" fill="#1a1a1a" d="m3.37353,1060.941904c-0.395552,3.627507 -0.159866,6.628849 0.526428,6.703684s1.563296,-2.805177 1.958847,-6.432684c0.395562,-3.627607 0.159877,-6.628949 -0.526417,-6.703784s-1.563296,2.805177 -1.958858,6.432784z" id="path5725"/>
      </g>
      <rect stroke-linejoin="round" stroke="#000000" stroke-linecap="round" stroke-width="0.95429" fill="#800000" x="0.4795" y="1012.016417" width="3.9743" height="47.903" id="rect5727"/>
      <rect stroke-linejoin="round" stroke="#000000" stroke-linecap="round" fill="#666666" x="-4.8555" y="1024.116417" width="14.643" height="26.429" ry="2.8571" rx="2.1429" id="rect5729"/>
     </g>
     <g transform="matrix(0.99978,0.021105,-0.021105,0.99978,111.59,5.6371) " id="g5731">
      <g id="g5733">
       <path stroke-linejoin="round" stroke="#000000" stroke-linecap="round" fill="#1a1a1a" d="m1.556269,1060.941904c0.395552,3.627507 0.159866,6.628849 -0.526428,6.703684s-1.563296,-2.805177 -1.958847,-6.432684c-0.395562,-3.627607 -0.159877,-6.628949 0.526417,-6.703784s1.563296,2.805177 1.958858,6.432784z" id="path5735"/>
       <path stroke-linejoin="round" stroke="#000000" stroke-linecap="round" fill="#1a1a1a" d="m3.37353,1060.941904c-0.395552,3.627507 -0.159866,6.628849 0.526428,6.703684s1.563296,-2.805177 1.958847,-6.432684c0.395562,-3.627607 0.159877,-6.628949 -0.526417,-6.703784s-1.563296,2.805177 -1.958858,6.432784z" id="path5737"/>
      </g>
      <rect stroke-linejoin="round" stroke="#000000" stroke-linecap="round" stroke-width="0.95429" fill="#800000" x="0.4795" y="1012.016417" width="3.9743" height="47.903" id="rect5739"/>
      <rect stroke-linejoin="round" stroke="#000000" stroke-linecap="round" fill="#666666" x="-4.8555" y="1024.116417" width="14.643" height="26.429" ry="2.8571" rx="2.1429" id="rect5741"/>
     </g>
     <g transform="matrix(0.99978,0.021105,-0.021105,0.99978,138.69,6.2091) " id="g5743">
      <g id="g5745">
       <path stroke-linejoin="round" stroke="#000000" stroke-linecap="round" fill="#1a1a1a" d="m1.556269,1060.941904c0.395552,3.627507 0.159866,6.628849 -0.526428,6.703684s-1.563296,-2.805177 -1.958847,-6.432684c-0.395562,-3.627607 -0.159877,-6.628949 0.526417,-6.703784s1.563296,2.805177 1.958858,6.432784z" id="path5747"/>
       <path stroke-linejoin="round" stroke="#000000" stroke-linecap="round" fill="#1a1a1a" d="m3.37353,1060.941904c-0.395552,3.627507 -0.159866,6.628849 0.526428,6.703684s1.563296,-2.805177 1.958847,-6.432684c0.395562,-3.627607 0.159877,-6.628949 -0.526417,-6.703784s-1.563296,2.805177 -1.958858,6.432784z" id="path5749"/>
      </g>
      <rect stroke-linejoin="round" stroke="#000000" stroke-linecap="round" stroke-width="0.95429" fill="#800000" x="0.4795" y="1012.016417" width="3.9743" height="47.903" id="rect5751"/>
      <rect stroke-linejoin="round" stroke="#000000" stroke-linecap="round" fill="#666666" x="-4.8555" y="1024.116417" width="14.643" height="26.429" ry="2.8571" rx="2.1429" id="rect5753"/>
     </g>
     <g transform="matrix(0.99978,0.021105,-0.021105,0.99978,165.79,6.7811) " id="g5755">
      <g id="g5757">
       <path stroke-linejoin="round" stroke="#000000" stroke-linecap="round" fill="#1a1a1a" d="m1.556269,1060.941904c0.395552,3.627507 0.159866,6.628849 -0.526428,6.703684s-1.563296,-2.805177 -1.958847,-6.432684c-0.395562,-3.627607 -0.159877,-6.628949 0.526417,-6.703784s1.563296,2.805177 1.958858,6.432784z" id="path5759"/>
       <path stroke-linejoin="round" stroke="#000000" stroke-linecap="round" fill="#1a1a1a" d="m3.37353,1060.941904c-0.395552,3.627507 -0.159866,6.628849 0.526428,6.703684s1.563296,-2.805177 1.958847,-6.432684c0.395562,-3.627607 0.159877,-6.628949 -0.526417,-6.703784s-1.563296,2.805177 -1.958858,6.432784z" id="path5761"/>
      </g>
      <rect stroke-linejoin="round" stroke="#000000" stroke-linecap="round" stroke-width="0.95429" fill="#800000" x="0.4795" y="1012.016417" width="3.9743" height="47.903" id="rect5763"/>
      <rect stroke-linejoin="round" stroke="#000000" stroke-linecap="round" fill="#666666" x="-4.8555" y="1024.116417" width="14.643" height="26.429" ry="2.8571" rx="2.1429" id="rect5765"/>
     </g>
     <g transform="matrix(0.99978,0.021105,-0.021105,0.99978,192.88,7.3531) " id="g5767">
      <g id="g5769">
       <path stroke-linejoin="round" stroke="#000000" stroke-linecap="round" fill="#1a1a1a" d="m1.556269,1060.941904c0.395552,3.627507 0.159866,6.628849 -0.526428,6.703684s-1.563296,-2.805177 -1.958847,-6.432684c-0.395562,-3.627607 -0.159877,-6.628949 0.526417,-6.703784s1.563296,2.805177 1.958858,6.432784z" id="path5771"/>
       <path stroke-linejoin="round" stroke="#000000" stroke-linecap="round" fill="#1a1a1a" d="m3.37353,1060.941904c-0.395552,3.627507 -0.159866,6.628849 0.526428,6.703684s1.563296,-2.805177 1.958847,-6.432684c0.395562,-3.627607 0.159877,-6.628949 -0.526417,-6.703784s-1.563296,2.805177 -1.958858,6.432784z" id="path5773"/>
      </g>
      <rect stroke-linejoin="round" stroke="#000000" stroke-linecap="round" stroke-width="0.95429" fill="#800000" x="0.4795" y="1012.016417" width="3.9743" height="47.903" id="rect5775"/>
      <rect stroke-linejoin="round" stroke="#000000" stroke-linecap="round" fill="#666666" x="-4.8555" y="1024.116417" width="14.643" height="26.429" ry="2.8571" rx="2.1429" id="rect5777"/>
     </g>
     <g transform="matrix(0.99978,0.021105,-0.021105,0.99978,219.98,7.9251) " id="g5779">
      <g id="g5781">
       <path stroke-linejoin="round" stroke="#000000" stroke-linecap="round" fill="#1a1a1a" d="m1.556269,1060.941904c0.395552,3.627507 0.159866,6.628849 -0.526428,6.703684s-1.563296,-2.805177 -1.958847,-6.432684c-0.395562,-3.627607 -0.159877,-6.628949 0.526417,-6.703784s1.563296,2.805177 1.958858,6.432784z" id="path5783"/>
       <path stroke-linejoin="round" stroke="#000000" stroke-linecap="round" fill="#1a1a1a" d="m3.37353,1060.941904c-0.395552,3.627507 -0.159866,6.628849 0.526428,6.703684s1.563296,-2.805177 1.958847,-6.432684c0.395562,-3.627607 0.159877,-6.628949 -0.526417,-6.703784s-1.563296,2.805177 -1.958858,6.432784z" id="path5785"/>
      </g>
      <rect stroke-linejoin="round" stroke="#000000" stroke-linecap="round" stroke-width="0.95429" fill="#800000" x="0.4795" y="1012.016417" width="3.9743" height="47.903" id="rect5787"/>
      <rect stroke-linejoin="round" stroke="#000000" stroke-linecap="round" fill="#666666" x="-4.8555" y="1024.116417" width="14.643" height="26.429" ry="2.8571" rx="2.1429" id="rect5789"/>
     </g>
     <g transform="matrix(0.99978,0.021105,-0.021105,0.99978,247.08,8.4971) " id="g5791">
      <g id="g5793">
       <path stroke-linejoin="round" stroke="#000000" stroke-linecap="round" fill="#1a1a1a" d="m1.556269,1060.941904c0.395552,3.627507 0.159866,6.628849 -0.526428,6.703684s-1.563296,-2.805177 -1.958847,-6.432684c-0.395562,-3.627607 -0.159877,-6.628949 0.526417,-6.703784s1.563296,2.805177 1.958858,6.432784z" id="path5795"/>
       <path stroke-linejoin="round" stroke="#000000" stroke-linecap="round" fill="#1a1a1a" d="m3.37353,1060.941904c-0.395552,3.627507 -0.159866,6.628849 0.526428,6.703684s1.563296,-2.805177 1.958847,-6.432684c0.395562,-3.627607 0.159877,-6.628949 -0.526417,-6.703784s-1.563296,2.805177 -1.958858,6.432784z" id="path5797"/>
      </g>
      <rect stroke-linejoin="round" stroke="#000000" stroke-linecap="round" stroke-width="0.95429" fill="#800000" x="0.4795" y="1012.016417" width="3.9743" height="47.903" id="rect5799"/>
      <rect stroke-linejoin="round" stroke="#000000" stroke-linecap="round" fill="#666666" x="-4.8555" y="1024.116417" width="14.643" height="26.429" ry="2.8571" rx="2.1429" id="rect5801"/>
     </g>
     <rect stroke-linejoin="round" stroke="#000000" stroke-linecap="round" stroke-width="1.0004" fill="#800000" x="32.548734" y="1011.793037" width="266.43" height="5.3053" transform="matrix(0.99981,0.019488,-0.058333,0.9983,0,0) " id="rect5674"/>
    </g>
   </g>
  </g>
 </g>
</svg>